# xmcd
#
# Track frame offsets:
#	150
#	13275
#	28292
#	39700
#	49171
#	59651
#	68895
#	80615
#	89303
#	104506
#	119884
#	129678
#	139846
#	155922
#
# Disc length: 2240 seconds
#
# Revision: 2
# Processed by: cddbd v1.4b41PL3 Copyright (c) Steve Scherf et al.
# Submitted via: EZCDDA 4.3.2
#
DISCID=de08be0e
DTITLE=Diana Ross - Lady Sings The Blues
DYEAR=1900
DGENRE=
TTITLE0=Fine and mellow
TTITLE1=Lover man (Oh, where can you be)
TTITLE2=You've changed
TTITLE3=Gimme a pigfoot and a bottle of beer
TTITLE4=Good morning heartache
TTITLE5=All of me
TTITLE6=Ain't nobody's business if I do (Live)
TTITLE7=Our love is here to stay (Live)
TTITLE8=My man (Live)
TTITLE9=My man
TTITLE10=Don't explain
TTITLE11=I cried for you
TTITLE12=Strange fruit
TTITLE13=God bless the child
EXTD=
EXTT0=
EXTT1=
EXTT2=
EXTT3=
EXTT4=
EXTT5=
EXTT6=
EXTT7=
EXTT8=
EXTT9=
EXTT10=
EXTT11=
EXTT12=
EXTT13=
PLAYORDER=
